<svg width="241" height="29" viewBox="0 0 241 29" fill="none" xmlns="http://www.w3.org/2000/svg">
<path d="M19.2305 27.1406H18.0703L16.207 24.5566C15.75 24.9668 15.2637 25.3535 14.748 25.7168C14.2441 26.0684 13.7109 26.3789 13.1484 26.6484C12.5859 26.9062 12.0059 27.1113 11.4082 27.2637C10.8223 27.416 10.2246 27.4922 9.61523 27.4922C8.29102 27.4922 7.04297 27.2461 5.87109 26.7539C4.71094 26.25 3.69141 25.5586 2.8125 24.6797C1.94531 23.7891 1.25977 22.7402 0.755859 21.5332C0.251953 20.3145 0 18.9902 0 17.5605C0 16.1426 0.251953 14.8242 0.755859 13.6055C1.25977 12.3867 1.94531 11.332 2.8125 10.4414C3.69141 9.55078 4.71094 8.85352 5.87109 8.34961C7.04297 7.8457 8.29102 7.59375 9.61523 7.59375C10.0371 7.59375 10.4707 7.62891 10.916 7.69922C11.373 7.76953 11.8125 7.88672 12.2344 8.05078C12.668 8.20312 13.0723 8.4082 13.4473 8.66602C13.8223 8.92383 14.1387 9.24023 14.3965 9.61523V0.826172H19.2305V27.1406ZM14.3965 17.5605C14.3965 16.9043 14.2676 16.2715 14.0098 15.6621C13.7637 15.041 13.4238 14.4961 12.9902 14.0273C12.5566 13.5469 12.0469 13.166 11.4609 12.8848C10.8867 12.5918 10.2715 12.4453 9.61523 12.4453C8.95898 12.4453 8.33789 12.5625 7.75195 12.7969C7.17773 13.0312 6.67383 13.3711 6.24023 13.8164C5.81836 14.25 5.48438 14.7832 5.23828 15.416C4.99219 16.0488 4.86914 16.7637 4.86914 17.5605C4.86914 18.252 4.99219 18.9082 5.23828 19.5293C5.48438 20.1504 5.81836 20.6953 6.24023 21.1641C6.67383 21.6328 7.17773 22.002 7.75195 22.2715C8.33789 22.541 8.95898 22.6758 9.61523 22.6758C10.2715 22.6758 10.8867 22.5352 11.4609 22.2539C12.0469 21.9609 12.5566 21.5801 12.9902 21.1113C13.4238 20.6309 13.7637 20.0859 14.0098 19.4766C14.2676 18.8555 14.3965 18.2168 14.3965 17.5605ZM36.7383 24.9434C36.3516 25.2949 35.9355 25.6289 35.4902 25.9453C35.0566 26.25 34.5996 26.5195 34.1191 26.7539C33.6387 26.9766 33.1406 27.1523 32.625 27.2812C32.1211 27.4219 31.6055 27.4922 31.0781 27.4922C29.918 27.4922 28.8281 27.2871 27.8086 26.877C26.7891 26.4668 25.8926 25.8867 25.1191 25.1367C24.3574 24.375 23.7539 23.4551 23.3086 22.377C22.875 21.2871 22.6582 20.0684 22.6582 18.7207V8.31445H27.4395V18.7207C27.4395 19.3535 27.5332 19.9219 27.7207 20.4258C27.9199 20.918 28.1836 21.334 28.5117 21.6738C28.8398 22.0137 29.2207 22.2715 29.6543 22.4473C30.0996 22.623 30.5742 22.7109 31.0781 22.7109C31.5703 22.7109 32.0332 22.5996 32.4668 22.377C32.9121 22.1426 33.2988 21.8379 33.627 21.4629C33.9551 21.0879 34.2129 20.666 34.4004 20.1973C34.5879 19.7168 34.6816 19.2246 34.6816 18.7207V8.31445H39.4805V27.1406H38.3203L36.7383 24.9434ZM47.9883 27.1406H43.1543V0.826172H47.9883V27.1406ZM69.8906 27.1406H68.7305L66.8672 24.5566C66.4102 24.9668 65.9238 25.3535 65.4082 25.7168C64.9043 26.0684 64.3711 26.3789 63.8086 26.6484C63.2461 26.9062 62.666 27.1113 62.0684 27.2637C61.4824 27.416 60.8848 27.4922 60.2754 27.4922C58.9512 27.4922 57.7031 27.2695 56.5312 26.8242C55.3711 26.3789 54.3516 25.7344 53.4727 24.8906C52.6055 24.0352 51.9199 22.9922 51.416 21.7617C50.9121 20.5312 50.6602 19.1309 50.6602 17.5605C50.6602 16.0957 50.9121 14.7539 51.416 13.5352C51.9199 12.3047 52.6055 11.25 53.4727 10.3711C54.3516 9.49219 55.3711 8.8125 56.5312 8.33203C57.7031 7.83984 58.9512 7.59375 60.2754 7.59375C60.8848 7.59375 61.4883 7.66992 62.0859 7.82227C62.6836 7.97461 63.2637 8.18555 63.8262 8.45508C64.3887 8.72461 64.9219 9.04102 65.4258 9.4043C65.9414 9.76758 66.4219 10.1602 66.8672 10.582L68.7305 8.34961H69.8906V27.1406ZM65.0566 17.5605C65.0566 16.9043 64.9277 16.2715 64.6699 15.6621C64.4238 15.041 64.084 14.4961 63.6504 14.0273C63.2168 13.5469 62.707 13.166 62.1211 12.8848C61.5469 12.5918 60.9316 12.4453 60.2754 12.4453C59.6191 12.4453 58.998 12.5566 58.4121 12.7793C57.8379 13.002 57.334 13.3301 56.9004 13.7637C56.4785 14.1973 56.1445 14.7363 55.8984 15.3809C55.6523 16.0137 55.5293 16.7402 55.5293 17.5605C55.5293 18.3809 55.6523 19.1133 55.8984 19.7578C56.1445 20.3906 56.4785 20.9238 56.9004 21.3574C57.334 21.791 57.8379 22.1191 58.4121 22.3418C58.998 22.5645 59.6191 22.6758 60.2754 22.6758C60.9316 22.6758 61.5469 22.5352 62.1211 22.2539C62.707 21.9609 63.2168 21.5801 63.6504 21.1113C64.084 20.6309 64.4238 20.0859 64.6699 19.4766C64.9277 18.8555 65.0566 18.2168 65.0566 17.5605ZM92.4082 17.5605C92.4082 19.0371 92.1562 20.3848 91.6523 21.6035C91.1484 22.8223 90.4629 23.8711 89.5957 24.75C88.7285 25.6172 87.709 26.291 86.5371 26.7715C85.377 27.252 84.1289 27.4922 82.793 27.4922C81.4688 27.4922 80.2207 27.2461 79.0488 26.7539C77.8887 26.2617 76.8691 25.5762 75.9902 24.6973C75.123 23.8184 74.4375 22.7754 73.9336 21.5684C73.4297 20.3496 73.1777 19.0137 73.1777 17.5605V0.826172H77.9941V9.61523C78.252 9.28711 78.5625 8.99414 78.9258 8.73633C79.3008 8.47852 79.6992 8.26758 80.1211 8.10352C80.5547 7.93945 81 7.81641 81.457 7.73438C81.9141 7.64062 82.3594 7.59375 82.793 7.59375C84.1289 7.59375 85.377 7.8457 86.5371 8.34961C87.709 8.8418 88.7285 9.5332 89.5957 10.4238C90.4629 11.3145 91.1484 12.3691 91.6523 13.5879C92.1562 14.7949 92.4082 16.1191 92.4082 17.5605ZM87.5742 17.5605C87.5742 16.834 87.4453 16.1602 87.1875 15.5391C86.9414 14.9062 86.6016 14.3613 86.168 13.9043C85.7344 13.4473 85.2246 13.0898 84.6387 12.832C84.0645 12.5742 83.4492 12.4453 82.793 12.4453C82.1367 12.4453 81.5156 12.5918 80.9297 12.8848C80.3555 13.166 79.8516 13.5469 79.418 14.0273C78.9844 14.4961 78.6445 15.041 78.3984 15.6621C78.1523 16.2715 78.0293 16.9043 78.0293 17.5605C78.0293 18.2871 78.1523 18.9609 78.3984 19.582C78.6445 20.2031 78.9844 20.7422 79.418 21.1992C79.8516 21.6562 80.3555 22.0195 80.9297 22.2891C81.5156 22.5469 82.1367 22.6758 82.793 22.6758C83.4492 22.6758 84.0645 22.5469 84.6387 22.2891C85.2246 22.0195 85.7344 21.6562 86.168 21.1992C86.6016 20.7422 86.9414 20.2031 87.1875 19.582C87.4453 18.9609 87.5742 18.2871 87.5742 17.5605ZM108.914 24.9434C108.527 25.2949 108.111 25.6289 107.666 25.9453C107.232 26.25 106.775 26.5195 106.295 26.7539C105.814 26.9766 105.316 27.1523 104.801 27.2812C104.297 27.4219 103.781 27.4922 103.254 27.4922C102.094 27.4922 101.004 27.2871 99.9844 26.877C98.9648 26.4668 98.0684 25.8867 97.2949 25.1367C96.5332 24.375 95.9297 23.4551 95.4844 22.377C95.0508 21.2871 94.834 20.0684 94.834 18.7207V8.31445H99.6152V18.7207C99.6152 19.3535 99.709 19.9219 99.8965 20.4258C100.096 20.918 100.359 21.334 100.688 21.6738C101.016 22.0137 101.396 22.2715 101.83 22.4473C102.275 22.623 102.75 22.7109 103.254 22.7109C103.746 22.7109 104.209 22.5996 104.643 22.377C105.088 22.1426 105.475 21.8379 105.803 21.4629C106.131 21.0879 106.389 20.666 106.576 20.1973C106.764 19.7168 106.857 19.2246 106.857 18.7207V8.31445H111.656V27.1406H110.496L108.914 24.9434ZM120.99 3.19922C120.99 3.64453 120.902 4.06055 120.727 4.44727C120.562 4.83398 120.334 5.17383 120.041 5.4668C119.748 5.74805 119.402 5.97656 119.004 6.15234C118.617 6.31641 118.201 6.39844 117.756 6.39844C117.311 6.39844 116.889 6.31641 116.49 6.15234C116.104 5.97656 115.764 5.74805 115.471 5.4668C115.189 5.17383 114.961 4.83398 114.785 4.44727C114.621 4.06055 114.539 3.64453 114.539 3.19922C114.539 2.76562 114.621 2.35547 114.785 1.96875C114.961 1.57031 115.189 1.23047 115.471 0.949219C115.764 0.65625 116.104 0.427734 116.49 0.263672C116.889 0.0878906 117.311 0 117.756 0C118.201 0 118.617 0.0878906 119.004 0.263672C119.402 0.427734 119.748 0.65625 120.041 0.949219C120.334 1.23047 120.562 1.57031 120.727 1.96875C120.902 2.35547 120.99 2.76562 120.99 3.19922ZM120.164 27.1406H115.33V8.31445H120.164V27.1406ZM128.672 27.1406H123.838V0.826172H128.672V27.1406ZM150.539 27.1406H149.379L147.516 24.5566C147.059 24.9668 146.572 25.3535 146.057 25.7168C145.553 26.0684 145.02 26.3789 144.457 26.6484C143.895 26.9062 143.314 27.1113 142.717 27.2637C142.131 27.416 141.533 27.4922 140.924 27.4922C139.6 27.4922 138.352 27.2461 137.18 26.7539C136.02 26.25 135 25.5586 134.121 24.6797C133.254 23.7891 132.568 22.7402 132.064 21.5332C131.561 20.3145 131.309 18.9902 131.309 17.5605C131.309 16.1426 131.561 14.8242 132.064 13.6055C132.568 12.3867 133.254 11.332 134.121 10.4414C135 9.55078 136.02 8.85352 137.18 8.34961C138.352 7.8457 139.6 7.59375 140.924 7.59375C141.346 7.59375 141.779 7.62891 142.225 7.69922C142.682 7.76953 143.121 7.88672 143.543 8.05078C143.977 8.20312 144.381 8.4082 144.756 8.66602C145.131 8.92383 145.447 9.24023 145.705 9.61523V0.826172H150.539V27.1406ZM145.705 17.5605C145.705 16.9043 145.576 16.2715 145.318 15.6621C145.072 15.041 144.732 14.4961 144.299 14.0273C143.865 13.5469 143.355 13.166 142.77 12.8848C142.195 12.5918 141.58 12.4453 140.924 12.4453C140.268 12.4453 139.646 12.5625 139.061 12.7969C138.486 13.0312 137.982 13.3711 137.549 13.8164C137.127 14.25 136.793 14.7832 136.547 15.416C136.301 16.0488 136.178 16.7637 136.178 17.5605C136.178 18.252 136.301 18.9082 136.547 19.5293C136.793 20.1504 137.127 20.6953 137.549 21.1641C137.982 21.6328 138.486 22.002 139.061 22.2715C139.646 22.541 140.268 22.6758 140.924 22.6758C141.58 22.6758 142.195 22.5352 142.77 22.2539C143.355 21.9609 143.865 21.5801 144.299 21.1113C144.732 20.6309 145.072 20.0859 145.318 19.4766C145.576 18.8555 145.705 18.2168 145.705 17.5605ZM164.549 27.1406H153.58V22.3594H164.549C164.877 22.3594 165.158 22.2422 165.393 22.0078C165.627 21.7734 165.744 21.4922 165.744 21.1641C165.744 20.8242 165.627 20.6016 165.393 20.4961C165.158 20.3906 164.877 20.3379 164.549 20.3379H159.557C158.725 20.3379 157.945 20.1797 157.219 19.8633C156.492 19.5469 155.859 19.1191 155.32 18.5801C154.781 18.0293 154.354 17.3906 154.037 16.6641C153.732 15.9375 153.58 15.1582 153.58 14.3262C153.58 13.4941 153.732 12.7148 154.037 11.9883C154.354 11.2617 154.781 10.6289 155.32 10.0898C155.859 9.55078 156.492 9.12891 157.219 8.82422C157.945 8.50781 158.725 8.34961 159.557 8.34961H169.277V13.1309H159.557C159.229 13.1309 158.947 13.248 158.713 13.4824C158.479 13.7168 158.361 13.998 158.361 14.3262C158.361 14.666 158.479 14.959 158.713 15.2051C158.947 15.4395 159.229 15.5566 159.557 15.5566H164.549C165.369 15.5566 166.143 15.6973 166.869 15.9785C167.596 16.248 168.229 16.6289 168.768 17.1211C169.307 17.6133 169.734 18.2051 170.051 18.8965C170.367 19.5879 170.525 20.3438 170.525 21.1641C170.525 21.9961 170.367 22.7754 170.051 23.502C169.734 24.2168 169.307 24.8496 168.768 25.4004C168.229 25.9395 167.596 26.3672 166.869 26.6836C166.143 26.9883 165.369 27.1406 164.549 27.1406ZM178.998 25.3477C178.998 25.7695 178.922 26.168 178.77 26.543C178.617 26.9062 178.406 27.2227 178.137 27.4922C177.867 27.7617 177.551 27.9727 177.188 28.125C176.824 28.2891 176.432 28.3711 176.01 28.3711C175.6 28.3711 175.207 28.2891 174.832 28.125C174.469 27.9727 174.146 27.7617 173.865 27.4922C173.596 27.2227 173.379 26.9062 173.215 26.543C173.062 26.168 172.986 25.7695 172.986 25.3477C172.986 24.9375 173.062 24.5508 173.215 24.1875C173.379 23.8242 173.596 23.5078 173.865 23.2383C174.146 22.9688 174.469 22.7578 174.832 22.6055C175.207 22.4414 175.6 22.3594 176.01 22.3594C176.432 22.3594 176.824 22.4414 177.188 22.6055C177.551 22.7578 177.867 22.9688 178.137 23.2383C178.406 23.5078 178.617 23.8242 178.77 24.1875C178.922 24.5508 178.998 24.9375 178.998 25.3477ZM200.777 27.1406H199.617L197.754 24.5566C197.297 24.9668 196.811 25.3535 196.295 25.7168C195.791 26.0684 195.258 26.3789 194.695 26.6484C194.133 26.9062 193.553 27.1113 192.955 27.2637C192.369 27.416 191.771 27.4922 191.162 27.4922C189.838 27.4922 188.59 27.2461 187.418 26.7539C186.258 26.25 185.238 25.5586 184.359 24.6797C183.492 23.7891 182.807 22.7402 182.303 21.5332C181.799 20.3145 181.547 18.9902 181.547 17.5605C181.547 16.1426 181.799 14.8242 182.303 13.6055C182.807 12.3867 183.492 11.332 184.359 10.4414C185.238 9.55078 186.258 8.85352 187.418 8.34961C188.59 7.8457 189.838 7.59375 191.162 7.59375C191.584 7.59375 192.018 7.62891 192.463 7.69922C192.92 7.76953 193.359 7.88672 193.781 8.05078C194.215 8.20312 194.619 8.4082 194.994 8.66602C195.369 8.92383 195.686 9.24023 195.943 9.61523V0.826172H200.777V27.1406ZM195.943 17.5605C195.943 16.9043 195.814 16.2715 195.557 15.6621C195.311 15.041 194.971 14.4961 194.537 14.0273C194.104 13.5469 193.594 13.166 193.008 12.8848C192.434 12.5918 191.818 12.4453 191.162 12.4453C190.506 12.4453 189.885 12.5625 189.299 12.7969C188.725 13.0312 188.221 13.3711 187.787 13.8164C187.365 14.25 187.031 14.7832 186.785 15.416C186.539 16.0488 186.416 16.7637 186.416 17.5605C186.416 18.252 186.539 18.9082 186.785 19.5293C187.031 20.1504 187.365 20.6953 187.787 21.1641C188.221 21.6328 188.725 22.002 189.299 22.2715C189.885 22.541 190.506 22.6758 191.162 22.6758C191.818 22.6758 192.434 22.5352 193.008 22.2539C193.594 21.9609 194.104 21.5801 194.537 21.1113C194.971 20.6309 195.311 20.0859 195.557 19.4766C195.814 18.8555 195.943 18.2168 195.943 17.5605ZM211.939 22.5352C212.127 22.5938 212.314 22.6348 212.502 22.6582C212.689 22.6699 212.877 22.6758 213.064 22.6758C213.533 22.6758 213.984 22.6113 214.418 22.4824C214.852 22.3535 215.256 22.1719 215.631 21.9375C216.018 21.6914 216.357 21.3984 216.65 21.0586C216.955 20.707 217.201 20.3203 217.389 19.8984L220.904 23.4316C220.459 24.0645 219.943 24.6328 219.357 25.1367C218.783 25.6406 218.156 26.0684 217.477 26.4199C216.809 26.7715 216.1 27.0352 215.35 27.2109C214.611 27.3984 213.85 27.4922 213.064 27.4922C211.74 27.4922 210.492 27.2461 209.32 26.7539C208.16 26.2617 207.141 25.5762 206.262 24.6973C205.395 23.8184 204.709 22.7754 204.205 21.5684C203.701 20.3496 203.449 19.0137 203.449 17.5605C203.449 16.0723 203.701 14.7129 204.205 13.4824C204.709 12.252 205.395 11.2031 206.262 10.3359C207.141 9.46875 208.16 8.79492 209.32 8.31445C210.492 7.83398 211.74 7.59375 213.064 7.59375C213.85 7.59375 214.617 7.6875 215.367 7.875C216.117 8.0625 216.826 8.33203 217.494 8.68359C218.174 9.03516 218.807 9.46875 219.393 9.98438C219.979 10.4883 220.494 11.0566 220.939 11.6895L211.939 22.5352ZM214.4 12.6387C214.178 12.5566 213.955 12.5039 213.732 12.4805C213.521 12.457 213.299 12.4453 213.064 12.4453C212.408 12.4453 211.787 12.5684 211.201 12.8145C210.627 13.0488 210.123 13.3887 209.689 13.834C209.268 14.2793 208.934 14.8184 208.688 15.4512C208.441 16.0723 208.318 16.7754 208.318 17.5605C208.318 17.7363 208.324 17.9355 208.336 18.1582C208.359 18.3809 208.389 18.6094 208.424 18.8438C208.471 19.0664 208.523 19.2832 208.582 19.4941C208.641 19.7051 208.717 19.8926 208.811 20.0566L214.4 12.6387ZM228.463 27.1406L221.291 8.31445H226.758L230.871 20.0566L234.967 8.31445H240.451L233.279 27.1406H228.463Z" fill="#2BB8BA"/>
</svg>
