<svg width="50" height="50" viewBox="0 0 50 50" fill="none" xmlns="http://www.w3.org/2000/svg">
<path d="M5.20832 47.6333C5.44468 47.7713 5.7059 47.8613 5.97707 47.8983C6.24824 47.9353 6.52404 47.9184 6.7887 47.8488C7.05337 47.7791 7.30172 47.658 7.51956 47.4924C7.73741 47.3267 7.92048 47.1197 8.05832 46.8833L15.9062 33.4167C18.1219 34.4334 20.4908 35.0755 22.9166 35.3166V41.6666C22.9166 42.2192 23.1361 42.7491 23.5268 43.1398C23.9175 43.5305 24.4474 43.75 25 43.75C25.5525 43.75 26.0824 43.5305 26.4731 43.1398C26.8638 42.7491 27.0833 42.2192 27.0833 41.6666V35.3166C29.5091 35.0755 31.8781 34.4334 34.0937 33.4167L41.95 46.875C42.0774 47.1288 42.2554 47.3538 42.473 47.5363C42.6906 47.7188 42.9431 47.8548 43.2152 47.9362C43.4873 48.0175 43.7731 48.0423 44.0552 48.0091C44.3372 47.9759 44.6095 47.8855 44.8552 47.7432C45.101 47.601 45.3151 47.41 45.4844 47.182C45.6537 46.954 45.7746 46.6938 45.8397 46.4174C45.9047 46.141 45.9126 45.8542 45.8628 45.5746C45.813 45.295 45.7065 45.0286 45.55 44.7916L37.725 31.375C39.8421 29.9591 41.7329 28.2312 43.3333 26.25C43.6648 25.808 43.8072 25.2523 43.729 24.7054C43.6509 24.1584 43.3587 23.6648 42.9167 23.3333C42.4746 23.0018 41.919 22.8594 41.372 22.9376C40.825 23.0157 40.3315 23.308 40 23.75C38.7291 25.2809 37.251 26.6272 35.6083 27.75L31.1708 20.1333C32.1354 19.0777 32.8096 17.7899 33.1273 16.3957C33.4451 15.0015 33.3956 13.5487 32.9836 12.1794C32.5717 10.8101 31.8115 9.57111 30.7772 8.58364C29.743 7.59616 28.4702 6.894 27.0833 6.54581V4.16665C27.0833 3.61411 26.8638 3.08421 26.4731 2.69351C26.0824 2.30281 25.5525 2.08331 25 2.08331C24.4474 2.08331 23.9175 2.30281 23.5268 2.69351C23.1361 3.08421 22.9166 3.61411 22.9166 4.16665V6.54581C21.5298 6.894 20.257 7.59616 19.2227 8.58364C18.1885 9.57111 17.4283 10.8101 17.0163 12.1794C16.6044 13.5487 16.5549 15.0015 16.8726 16.3957C17.1904 17.7899 17.8645 19.0777 18.8292 20.1333L14.3896 27.7437C12.7485 26.6222 11.2711 25.2781 9.99998 23.75C9.66846 23.308 9.17492 23.0157 8.62794 22.9376C8.08096 22.8594 7.52534 23.0018 7.08332 23.3333C6.64129 23.6648 6.34906 24.1584 6.27092 24.7054C6.19278 25.2523 6.33513 25.808 6.66665 26.25C8.26771 28.2283 10.1585 29.9533 12.275 31.3666L4.44998 44.7916C4.1747 45.2693 4.09994 45.8365 4.24208 46.3692C4.38422 46.9018 4.73167 47.3564 5.20832 47.6333ZM25 10.4166C25.8241 10.4166 26.6297 10.661 27.3149 11.1189C28.0001 11.5767 28.5341 12.2274 28.8495 12.9888C29.1648 13.7502 29.2474 14.5879 29.0866 15.3962C28.9258 16.2044 28.529 16.9469 27.9463 17.5296C27.3635 18.1123 26.6211 18.5091 25.8129 18.6699C25.0046 18.8307 24.1668 18.7482 23.4055 18.4328C22.6441 18.1174 21.9934 17.5834 21.5355 16.8982C21.0777 16.213 20.8333 15.4074 20.8333 14.5833C20.8333 13.4782 21.2723 12.4184 22.0537 11.637C22.8351 10.8556 23.8949 10.4166 25 10.4166ZM22.3125 22.4333C24.0461 23.0782 25.9538 23.0782 27.6875 22.4333L31.9667 29.7708C30.4105 30.4458 28.7662 30.8961 27.0833 31.1083V29.1666C27.0833 28.6141 26.8638 28.0842 26.4731 27.6935C26.0824 27.3028 25.5525 27.0833 25 27.0833C24.4474 27.0833 23.9175 27.3028 23.5268 27.6935C23.1361 28.0842 22.9166 28.6141 22.9166 29.1666V31.1083C21.2337 30.8961 19.5895 30.4458 18.0333 29.7708L22.3125 22.4333Z" fill="#2BB8BA"/>
</svg>
