<svg width="50" height="50" viewBox="0 0 50 50" fill="none" xmlns="http://www.w3.org/2000/svg">
<path d="M12.5 2.08331C10.8424 2.08331 9.25269 2.74179 8.08058 3.9139C6.90848 5.086 6.25 6.67571 6.25 8.33331V41.6666C6.25 43.3242 6.90848 44.914 8.08058 46.0861C9.25269 47.2582 10.8424 47.9166 12.5 47.9166H37.5C39.1576 47.9166 40.7473 47.2582 41.9194 46.0861C43.0915 44.914 43.75 43.3242 43.75 41.6666V8.33331C43.75 6.67571 43.0915 5.086 41.9194 3.9139C40.7473 2.74179 39.1576 2.08331 37.5 2.08331H12.5ZM39.5833 8.33331V41.6666C39.5833 42.2192 39.3638 42.7491 38.9731 43.1398C38.5824 43.5305 38.0525 43.75 37.5 43.75H12.5C11.9475 43.75 11.4176 43.5305 11.0269 43.1398C10.6362 42.7491 10.4167 42.2192 10.4167 41.6666V8.33331C10.4167 7.78078 10.6362 7.25087 11.0269 6.86017C11.4176 6.46947 11.9475 6.24998 12.5 6.24998H37.5C38.0525 6.24998 38.5824 6.46947 38.9731 6.86017C39.3638 7.25087 39.5833 7.78078 39.5833 8.33331ZM18.75 20.8333C18.75 21.2454 18.6278 21.6481 18.3989 21.9908C18.17 22.3334 17.8446 22.6004 17.4639 22.7581C17.0832 22.9157 16.6644 22.957 16.2602 22.8766C15.8561 22.7962 15.4849 22.5978 15.1935 22.3065C14.9022 22.0151 14.7037 21.6439 14.6234 21.2397C14.543 20.8356 14.5842 20.4167 14.7419 20.0361C14.8996 19.6554 15.1666 19.33 15.5092 19.1011C15.8518 18.8722 16.2546 18.75 16.6667 18.75C17.2192 18.75 17.7491 18.9695 18.1398 19.3602C18.5305 19.7509 18.75 20.2808 18.75 20.8333ZM27.0833 20.8333C27.0833 21.2454 26.9611 21.6481 26.7322 21.9908C26.5033 22.3334 26.1779 22.6004 25.7973 22.7581C25.4166 22.9157 24.9977 22.957 24.5936 22.8766C24.1894 22.7962 23.8182 22.5978 23.5269 22.3065C23.2355 22.0151 23.0371 21.6439 22.9567 21.2397C22.8763 20.8356 22.9176 20.4167 23.0753 20.0361C23.2329 19.6554 23.5 19.33 23.8426 19.1011C24.1852 18.8722 24.588 18.75 25 18.75C25.5525 18.75 26.0824 18.9695 26.4731 19.3602C26.8638 19.7509 27.0833 20.2808 27.0833 20.8333ZM35.4167 20.8333C35.4167 21.2454 35.2945 21.6481 35.0656 21.9908C34.8366 22.3334 34.5113 22.6004 34.1306 22.7581C33.7499 22.9157 33.331 22.957 32.9269 22.8766C32.5228 22.7962 32.1516 22.5978 31.8602 22.3065C31.5688 22.0151 31.3704 21.6439 31.29 21.2397C31.2096 20.8356 31.2509 20.4167 31.4086 20.0361C31.5663 19.6554 31.8333 19.33 32.1759 19.1011C32.5185 18.8722 32.9213 18.75 33.3333 18.75C33.8859 18.75 34.4158 18.9695 34.8065 19.3602C35.1972 19.7509 35.4167 20.2808 35.4167 20.8333ZM18.75 29.1666C18.75 29.5787 18.6278 29.9815 18.3989 30.3241C18.17 30.6667 17.8446 30.9337 17.4639 31.0914C17.0832 31.2491 16.6644 31.2903 16.2602 31.2099C15.8561 31.1296 15.4849 30.9311 15.1935 30.6398C14.9022 30.3484 14.7037 29.9772 14.6234 29.5731C14.543 29.169 14.5842 28.7501 14.7419 28.3694C14.8996 27.9887 15.1666 27.6633 15.5092 27.4344C15.8518 27.2055 16.2546 27.0833 16.6667 27.0833C17.2192 27.0833 17.7491 27.3028 18.1398 27.6935C18.5305 28.0842 18.75 28.6141 18.75 29.1666ZM27.0833 29.1666C27.0833 29.5787 26.9611 29.9815 26.7322 30.3241C26.5033 30.6667 26.1779 30.9337 25.7973 31.0914C25.4166 31.2491 24.9977 31.2903 24.5936 31.2099C24.1894 31.1296 23.8182 30.9311 23.5269 30.6398C23.2355 30.3484 23.0371 29.9772 22.9567 29.5731C22.8763 29.169 22.9176 28.7501 23.0753 28.3694C23.2329 27.9887 23.5 27.6633 23.8426 27.4344C24.1852 27.2055 24.588 27.0833 25 27.0833C25.5525 27.0833 26.0824 27.3028 26.4731 27.6935C26.8638 28.0842 27.0833 28.6141 27.0833 29.1666ZM35.4167 29.1666C35.4167 29.5787 35.2945 29.9815 35.0656 30.3241C34.8366 30.6667 34.5113 30.9337 34.1306 31.0914C33.7499 31.2491 33.331 31.2903 32.9269 31.2099C32.5228 31.1296 32.1516 30.9311 31.8602 30.6398C31.5688 30.3484 31.3704 29.9772 31.29 29.5731C31.2096 29.169 31.2509 28.7501 31.4086 28.3694C31.5663 27.9887 31.8333 27.6633 32.1759 27.4344C32.5185 27.2055 32.9213 27.0833 33.3333 27.0833C33.8859 27.0833 34.4158 27.3028 34.8065 27.6935C35.1972 28.0842 35.4167 28.6141 35.4167 29.1666ZM27.0833 37.5C27.0833 37.912 26.9611 38.3148 26.7322 38.6574C26.5033 39 26.1779 39.267 25.7973 39.4247C25.4166 39.5824 24.9977 39.6237 24.5936 39.5433C24.1894 39.4629 23.8182 39.2645 23.5269 38.9731C23.2355 38.6818 23.0371 38.3105 22.9567 37.9064C22.8763 37.5023 22.9176 37.0834 23.0753 36.7027C23.2329 36.322 23.5 35.9967 23.8426 35.7677C24.1852 35.5388 24.588 35.4166 25 35.4166C25.5525 35.4166 26.0824 35.6361 26.4731 36.0268C26.8638 36.4175 27.0833 36.9474 27.0833 37.5ZM35.4167 12.5C35.4167 13.0525 35.1972 13.5824 34.8065 13.9731C34.4158 14.3638 33.8859 14.5833 33.3333 14.5833H16.6667C16.1141 14.5833 15.5842 14.3638 15.1935 13.9731C14.8028 13.5824 14.5833 13.0525 14.5833 12.5C14.5833 11.9474 14.8028 11.4175 15.1935 11.0268C15.5842 10.6361 16.1141 10.4166 16.6667 10.4166H33.3333C33.8859 10.4166 34.4158 10.6361 34.8065 11.0268C35.1972 11.4175 35.4167 11.9474 35.4167 12.5Z" fill="#2BB8BA"/>
</svg>
