<!DOCTYPE svg PUBLIC "-//W3C//DTD SVG 1.1//EN" "http://www.w3.org/Graphics/SVG/1.1/DTD/svg11.dtd">
<!-- Uploaded to: SVG Repo, www.svgrepo.com, Transformed by: SVG Repo Mixer Tools -->
<svg fill="#2BB8BA" width="800px" height="800px" viewBox="0 0 256 256" id="Flat" xmlns="http://www.w3.org/2000/svg">
<g id="SVGRepo_bgCarrier" stroke-width="0"/>
<g id="SVGRepo_tracerCarrier" stroke-linecap="round" stroke-linejoin="round"/>
<g id="SVGRepo_iconCarrier"> <path d="M224,108a12,12,0,0,0,0-24H180.19678l7.60986-41.85352a12.00017,12.00017,0,0,0-23.61328-4.293L155.80322,84H116.19678l7.60986-41.85352a12.00017,12.00017,0,0,0-23.61328-4.293L91.80322,84H43.63672a12,12,0,1,0,0,24H87.43945L80.167,148H32a12,12,0,0,0,0,24H75.80322l-7.60986,41.85352a12.00017,12.00017,0,1,0,23.61328,4.293L100.19678,172h39.60644l-7.60986,41.85352a12.00017,12.00017,0,1,0,23.61328,4.293L164.19678,172h48.1665a12,12,0,1,0,0-24H168.56055l7.27246-40Zm-79.833,40H104.56055l7.27246-40h39.60644Z"/> </g>
</svg>